# xmcd CD database file
#
# Track frame offsets:
#	150
#	15705
#	29340
#	46438
#	63688
#	75913
#	90800
#	105985
#	122675
#	137600
#	149973
#	164225
#	176938
#	193100
#
# Disc length: 2805 seconds
#
# Revision: 1
# Processed by: cddbd v1.5.2PL0 Copyright (c) Steve Scherf et al.
# Submitted via: CDex 1.51
#
DISCID=c40af30e
DTITLE=Various Artist - Spotlight On Hits Country Volume 22
DYEAR=1994
DGENRE=Country
TTITLE0=Brooks and Dunn - She's Not The Cheatin' Kind
TTITLE1=John Anderson - Country 'Til I Die
TTITLE2=Alan Jackson - Livin' On Love
TTITLE3=The Tractors - Baby Likes To Rock It
TTITLE4=Ken Mellons - Jukebox Junkie
TTITLE5=John Wiggins - Has Anybody Seen Amy?
TTITLE6=Sammy Kershaw - Third Rate Romance
TTITLE7=Tanya Tucker - You Just Watch Me
TTITLE8=Mark Collie - Hard Lovin' Woman
TTITLE9=Pam Tillis - When You Walk In The Room
TTITLE10=Chris Ledoux - Honky Tonk World
TTITLE11=Ricky Van Shelton - Wherever She Is
TTITLE12=Joe Diffie - Pickup Man
TTITLE13=Marty Stuart - That's What Love's About
EXTD=YEAR: 1994
EXTT0=
EXTT1=
EXTT2=
EXTT3=
EXTT4=
EXTT5=
EXTT6=
EXTT7=
EXTT8=
EXTT9=
EXTT10=
EXTT11=
EXTT12=
EXTT13=
PLAYORDER=
